<?xml version="1.0" encoding="UTF-8"?>
<!DOCTYPE svg PUBLIC "-//W3C//DTD SVG 1.1//EN" "http://www.w3.org/Graphics/SVG/1.1/DTD/svg11.dtd">
<!-- Creator: CorelDRAW 2019 (64-Bit) -->
<svg xmlns="http://www.w3.org/2000/svg" xml:space="preserve" width="120.243mm" height="190.61mm" version="1.1" style="shape-rendering:geometricPrecision; text-rendering:geometricPrecision; image-rendering:optimizeQuality; fill-rule:evenodd; clip-rule:evenodd"
viewBox="0 0 5233.24 8295.73"
 xmlns:xlink="http://www.w3.org/1999/xlink"
 xmlns:xodm="http://www.corel.com/coreldraw/odm/2003">
 <defs>
  <style type="text/css">
   <![CDATA[
    .fil0 {fill:#E22D30;fill-rule:nonzero}
   ]]>
  </style>
 </defs>
 <g id="Layer_x0020_1">
  <metadata id="CorelCorpID_0Corel-Layer"/>
  <polygon class="fil0" points="1900.31,7756.04 1704.67,8085.68 1506.16,7756.04 1404.49,7756.04 1404.49,8286.66 1519.82,8286.66 1519.82,7975.15 1675.22,8230.47 1730.45,8230.47 1886.65,7968.22 1887.39,8286.66 2002.55,8286.66 2001,7756.04 "/>
  <path class="fil0" d="M2346.64 8079.69l84.1 -203.12 84.16 203.12 -168.26 0zm24.22 -323.65l-236.4 530.62 125.89 0 46.96 -113.78 246.27 0 47.02 113.78 128.93 0 -237.37 -530.62 -121.3 0z"/>
  <path class="fil0" d="M2852.21 7854.62l186.57 0 0 252.4c0,58.35 -25.83,87.81 -75.09,87.81 -37.95,0 -69.75,-19.64 -98.56,-58.32l-68.2 81.83c38.69,50.05 101.49,77.39 172.73,77.39 125.14,0 190.99,-64.5 190.99,-195.61l0 -344.08 -308.44 0 0 98.58z"/>
  <path class="fil0" d="M3712.5 8048.52c0,100.89 -43.17,142.64 -118.26,142.64 -74.28,0 -118.2,-41.76 -118.2,-142.64l0 -292.48 -122.85 0 0 297.1c0,156.14 89.49,242.59 240.3,242.59 150.92,0 240.3,-86.45 240.3,-242.59l0 -297.1 -121.3 0 0 292.48z"/>
  <polygon class="fil0" points="761.2,7303.56 497.42,6981.42 395.75,6981.42 395.75,7512.07 517.11,7512.07 517.11,7189.95 781.64,7512.07 882.5,7512.07 882.5,6981.42 761.2,6981.42 "/>
  <path class="fil0" d="M1319.01 7411.2l-112.06 0 0 -328.86 112.06 0c105.46,0 174.4,62.78 174.4,164.43 0,101.49 -68.94,164.43 -174.4,164.43zm298.63 -164.43c0,-160.76 -119,-265.35 -292.48,-265.35l-241.05 0 0 530.65 241.05 0c173.48,0 292.48,-104.7 292.48,-265.3z"/>
  <path class="fil0" d="M2042.9 7416.58c-94.72,0 -165.96,-69.11 -165.96,-169.81 0,-100.89 71.24,-169.83 165.96,-169.83 94.72,0 165.96,68.94 165.96,169.83 0,100.71 -71.24,169.81 -165.96,169.81zm290.36 -169.81c0,-158.46 -123.6,-274.36 -290.36,-274.36 -167.51,0 -290.3,116.65 -290.3,274.36 0,157.68 122.79,274.36 290.3,274.36 166.76,0 290.36,-115.91 290.36,-274.36z"/>
  <polygon class="fil0" points="2622.82,7189.95 2887.4,7512.07 2988.09,7512.07 2988.09,6981.42 2866.79,6981.42 2866.79,7303.56 2603.01,6981.42 2501.58,6981.42 2501.58,7512.07 2622.82,7512.07 "/>
  <polygon class="fil0" points="3600.56,7413.51 3311.75,7413.51 3311.75,7290.67 3558.19,7290.67 3558.19,7195.17 3311.75,7195.17 3311.75,7080.04 3590.74,7080.04 3590.74,6981.42 3189.7,6981.42 3189.7,7512.07 3600.56,7512.07 "/>
  <path class="fil0" d="M3865.08 7131.46c0,-33.34 28.13,-60.49 100.86,-60.49 47.01,0 97.65,13.49 146.96,41.61l37.95 -93.22c-49.31,-31.17 -117.51,-46.96 -184.1,-46.96 -150.92,0 -223.71,74.91 -223.71,165.2 0,196.98 308.44,128.81 308.44,228.15 0,32.55 -29.51,56.8 -102.24,56.8 -63.72,0 -130.37,-22.71 -175.03,-55.26l-41.79 92.41c47.02,36.39 131.92,61.42 216.08,61.42 151.5,0 225.03,-75.84 225.03,-164.44 0,-194.84 -308.44,-127.44 -308.44,-225.23z"/>
  <path class="fil0" d="M4850.34 7305.11l84.1 -203.14 84.15 203.14 -168.26 0zm145.52 -323.7l-121.3 0 -236.39 530.65 125.89 0 46.96 -113.76 246.27 0 47.02 113.76 128.82 0 -237.26 -530.65z"/>
  <polygon class="fil0" points="5.22,6981.42 5.22,7080.04 71.35,7080.04 71.35,7512.07 194.2,7512.07 194.2,6981.42 "/>
  <polygon class="fil0" points="4383.46,6981.42 4317.27,6981.42 4317.27,7080.04 4383.46,7080.04 4383.46,7512.07 4506.25,7512.07 4506.25,6981.42 "/>
  <path class="fil0" d="M2625.75 1300.01l2607.49 0 0 -108.84c0,-600.35 0,-1191.17 0,-1191.17l-5233.24 0c0,0 0,231.4 0,503.45l0 371.59 2625.75 0 0 424.98z"/>
  <path class="fil0" d="M3060.88 2611.05l432.38 0c723.6,0 1310.23,586.52 1310.23,1310.29 0,151.67 -25.95,297.53 -73.37,432.95 -178.76,510.68 -665.16,876.99 -1236.87,876.99 -151.73,0 -297.6,-25.77 -433.01,-73.37 -510.63,-178.71 -876.99,-664.99 -876.99,-1236.58 0,-5.23 0,-10.62 0.17,-15.85l443.98 0c-0.29,5.23 -0.29,10.62 -0.29,15.85 0,320.55 174.28,600.46 433.13,750.29 127.44,73.53 275.15,115.79 433.01,115.79 320.73,0 600.75,-174.28 750.58,-433.13 73.6,-127.44 115.79,-275.26 115.79,-432.95 0,-478.59 -387.83,-866.43 -866.37,-866.43l-4.94 0 0 0.34 -860.91 0 0 -774.29c-41.91,36.51 -167.17,142.66 -270.04,196.21 -0.17,0.11 -0.46,0.29 -0.46,0.29 -82.95,47.76 -179.97,99.48 -288.35,153.39 -51.9,25.95 -106.55,52.18 -163.38,78.76 -323.77,151.38 -586.63,393.98 -764.76,591.11 -22.27,24.57 -43.11,48.57 -62.92,71.41l0 0.17c-106.43,135.36 -185.94,303.04 -196.1,485.94 -0.74,12.28 -1.09,24.4 -1.21,36.68l0 465.96 -434.22 0 0 -502.64 1.09 0c10.11,-281.92 109.48,-541.22 270.5,-750.64l-0.11 0c152.64,-233.7 366.76,-411.2 602.76,-561.66 141.45,-90.13 290.53,-170.55 438.99,-247.65 122.68,-63.72 273.6,-132.67 392.26,-205.75 103.96,-63.89 178.41,-128.07 233.41,-183.01 6.25,-6.6 17.05,-18.6 22.56,-24.57 133.13,-147.88 218.03,-354.2 218.03,-576.7 0,-2.75 0,-5.51 -0.17,-8.26l-2625.29 0 0 2632.69c0,1360.29 2619.95,2365.35 2619.95,2365.35 0,0 2613.29,-986.35 2613.29,-2365.35l0 -2190.95 -2172.35 0 0 869.3z"/>
 </g>
</svg>
